<?xml version="1.0" encoding="UTF-8" standalone="no"?>
<!DOCTYPE svg PUBLIC "-//W3C//DTD SVG 1.1//EN" "http://www.w3.org/Graphics/SVG/1.1/DTD/svg11.dtd">
<svg width="100%" height="100%" viewBox="0 0 100 99" version="1.1" xmlns="http://www.w3.org/2000/svg" xmlns:xlink="http://www.w3.org/1999/xlink" xml:space="preserve" xmlns:serif="http://www.serif.com/" style="fill-rule:evenodd;clip-rule:evenodd;stroke-linecap:round;stroke-linejoin:round;stroke-miterlimit:1.5;">
    <g id="Artboard1" transform="matrix(1.07372,0,0,0.970008,-41.9277,-224.69)">
        <rect x="39.049" y="231.637" width="93.135" height="103.092" style="fill:none;"/>
        <g transform="matrix(1,0,0,1,11.8723,0.0448335)">
            <g transform="matrix(0.102915,0.099408,-0.0898064,0.113918,28.7465,179.38)">
                <path d="M731,320L813,243L808,226L808,203L820,180L835,162L869,155L882,164L854,194L860,224L890,232.5L918,200L930,218L926,237L912,258L892,272.333L864,276.109L847,269L822,294.5L768,348L731,320Z" style="fill:rgb(74,55,160);"/>
            </g>
            <g transform="matrix(0.456359,0,0,0.505151,-23.9544,232.624)">
                <path d="M239.22,0L175.82,35.04L150,90.9L189.14,180.94L244.7,200L254.88,179.6L276,52.78L239.22,0Z" style="fill:rgb(52,32,140);fill-rule:nonzero;"/>
            </g>
            <g transform="matrix(0.456359,0,0,0.505151,-23.9544,232.624)">
                <path d="M276,52.78L236.88,28.82L182.86,71.4L244.7,200L254.88,179.6L276,52.78Z" style="fill:url(#_Linear1);fill-rule:nonzero;"/>
            </g>
            <g transform="matrix(0.456359,0,0,0.505151,-23.9544,232.624)">
                <path d="M276,52.78L239.22,0L236.88,28.82L276,52.78Z" style="fill:rgb(175,159,244);fill-rule:nonzero;"/>
            </g>
            <g transform="matrix(0.456359,0,0,0.505151,-23.9544,232.624)">
                <path d="M236.88,28.82L239.22,0L175.82,35.04L182.86,71.4L236.88,28.82Z" style="fill:rgb(74,55,160);fill-rule:nonzero;"/>
            </g>
            <g transform="matrix(0.456359,0,0,0.505151,-23.9544,232.624)">
                <path d="M182.86,71.4L189.14,180.94L244.7,200L182.86,71.4Z" style="fill:rgb(74,55,160);fill-rule:nonzero;"/>
            </g>
            <g transform="matrix(0.931345,0,0,1.03092,-189.678,-22.7656)">
                <path d="M264.091,321L260,319L260,316L257,314L258,311L255,309L256,306L252,304L253,301L249,299L251,296L249,292.211L251.439,290.633L251,287L254,286L254,281L257,279.109L256,275L259,273.077L259,268.085L264.091,264.904L255,293.211L263,316L264.091,321Z" style="fill:rgb(52,32,140);"/>
            </g>
            <g transform="matrix(0.931345,0,0,1.03092,-189.678,-22.7656)">
                <path d="M281.202,294.21L281.289,294.21" style="fill:none;"/>
            </g>
            <g transform="matrix(0.931345,0,0,1.03092,-189.678,-22.7656)">
                <path d="M281.723,294.297C281.723,293.937 282.181,293.474 282.389,293.197C282.6,292.916 282.734,292.475 283.083,292.3C283.361,292.162 283.65,292.024 283.952,291.924C284.733,291.664 285.927,292.228 286.614,292.503C287.262,292.762 287.917,292.851 288.206,293.429C288.346,293.708 288.692,293.943 288.929,294.181C288.978,294.23 289.19,294.302 289.19,294.355" style="fill:none;"/>
            </g>
            <g transform="matrix(0.931345,0,0,1.03092,-189.678,-22.7656)">
                <path d="M281.979,293.54C281.898,293.711 281.689,294.187 281.689,294.471C281.689,295.161 282.249,295.721 282.939,295.721C283.535,295.721 284.035,295.302 284.159,294.742C284.228,294.61 284.345,294.374 284.383,294.224C284.509,293.721 285.061,293.354 285.515,293.16C286.748,292.631 287.941,292.948 289.208,293.106C289.592,293.154 289.954,293.397 290.307,293.485C290.412,293.51 290.487,293.609 290.578,293.676C290.789,293.833 290.999,293.98 291.207,294.084C291.311,294.136 291.371,294.252 291.454,294.339C291.644,294.542 291.841,294.731 292.056,294.874C292.121,294.917 292.306,295.052 292.364,295.094C292.756,295.585 293.578,296.039 294.254,296.039C294.944,296.039 295.504,295.479 295.504,294.789C295.504,294.122 294.98,293.575 294.321,293.541C294.124,293.298 293.669,292.945 293.443,292.794C293.302,292.7 293.199,292.542 293.071,292.412C292.848,292.185 292.602,291.987 292.325,291.848C292.148,291.759 291.981,291.599 291.796,291.474C291.516,291.284 291.219,291.135 290.909,291.058C290.466,290.948 290,290.686 289.519,290.626C287.805,290.412 286.197,290.147 284.53,290.862C283.451,291.324 282.312,292.353 281.979,293.54Z"/>
            </g>
            <g transform="matrix(0.931345,0,0,1.03092,-189.678,-25.8583)">
                <path d="M272.529,282.537C272.833,281.525 273.086,280.493 273.484,279.514C274.284,277.546 276.563,275.865 278.635,275.475C281.184,274.996 283.611,276.036 285.118,278.138C285.632,278.855 286.073,279.627 286.449,280.424C286.557,280.653 286.792,281.726 286.944,281.726" style="fill:none;stroke:black;stroke-width:2.75px;"/>
            </g>
            <g transform="matrix(0.931345,0,0,1.03092,-189.678,-22.7656)">
                <path d="M310.764,288.093C310.764,288.093 291.201,288.036 282.78,288.011C281.779,288.008 280.817,288.404 280.108,289.111C279.399,289.818 279,290.779 279,291.78C279,292.44 279,293.129 279,293.8C279,296.209 280.773,298.252 283.159,298.59C291.271,299.742 308.419,302.176 308.419,302.176L310.764,288.093Z" style="fill:white;"/>
            </g>
            <g transform="matrix(0.931345,0,0,1.03092,-189.678,-22.7656)">
                <path d="M281.309,295.551C281.879,295.551 282.388,295.237 282.866,294.805C283.146,294.553 283.419,294.263 283.707,294.022C283.929,293.837 284.156,293.678 284.417,293.634C284.733,293.581 284.942,293.593 285.087,293.692C285.186,293.759 285.246,293.861 285.302,293.97C285.391,294.145 285.459,294.342 285.54,294.535C285.789,295.132 286.134,295.684 286.998,295.859C287.865,296.035 288.547,295.68 289.212,295.241C289.69,294.927 290.151,294.549 290.754,294.538C291.381,294.526 291.847,294.875 292.314,295.202C292.95,295.648 293.586,296.069 294.389,296.072C294.68,296.073 295.222,295.844 295.821,295.518C296.526,295.134 297.345,294.62 297.849,294.53C298.052,294.494 298.281,294.579 298.53,294.697C298.863,294.855 299.213,295.087 299.562,295.331C300.372,295.895 301.181,296.494 301.758,296.612C302.686,296.8 303.479,296.441 304.245,296.032C304.814,295.728 305.357,295.375 305.987,295.46C306.619,295.545 307.035,296.032 307.472,296.385C307.902,296.73 308.346,296.982 308.87,296.982C309.146,296.982 309.37,296.758 309.37,296.482C309.37,296.206 309.146,295.982 308.87,295.982C308.473,295.982 308.185,295.681 307.856,295.403C307.362,294.985 306.828,294.564 306.12,294.469C305.281,294.355 304.532,294.744 303.773,295.15C303.21,295.451 302.64,295.77 301.957,295.632C301.749,295.59 301.509,295.451 301.243,295.281C300.753,294.968 300.206,294.543 299.671,294.199C298.953,293.736 298.237,293.445 297.673,293.546C297.098,293.648 296.147,294.202 295.343,294.64C295.062,294.793 294.802,294.929 294.589,295.012C294.509,295.043 294.443,295.072 294.392,295.072C293.801,295.07 293.356,294.711 292.888,294.383C292.251,293.937 291.591,293.522 290.734,293.538C289.935,293.553 289.295,293.989 288.662,294.406C288.216,294.7 287.777,294.997 287.197,294.879C286.879,294.815 286.712,294.638 286.596,294.431C286.486,294.234 286.411,294.016 286.326,293.812C286.175,293.444 285.991,293.116 285.693,292.896C285.386,292.669 284.948,292.532 284.253,292.648C283.585,292.759 283.014,293.281 282.467,293.808C282.254,294.013 282.043,294.215 281.82,294.363C281.659,294.47 281.494,294.551 281.309,294.551C281.033,294.551 280.809,294.775 280.809,295.051C280.809,295.327 281.033,295.551 281.309,295.551Z"/>
            </g>
            <g transform="matrix(0.102915,0.099408,-0.0898064,0.113918,14.503,183.229)">
                <path d="M731,320L813,243L808,226L808,203L820,180L835,162L869,155L882,164L854,194L860,224L890,232.5L918,200L930,218L926,237L912,258L892,272.333L864,276.109L847,269L822,294.5L768,348L731,320Z" style="fill:rgb(74,55,160);"/>
            </g>
            <g transform="matrix(0.931345,0,0,1.03092,-2.47719,-11.4255)">
                <path d="M69.583,325.291L63.409,322.982L57.727,318.895L56.961,311.143L63.409,314.887L66.907,315.962L69.583,325.291Z" style="fill:rgb(52,32,140);"/>
            </g>
        </g>
    </g>
    <defs>
        <linearGradient id="_Linear1" x1="0" y1="0" x2="1" y2="0" gradientUnits="userSpaceOnUse" gradientTransform="matrix(-63.18,-150.98,150.98,-63.18,-4617.62,-11162.4)"><stop offset="0" style="stop-color:rgb(108,86,204);stop-opacity:1"/><stop offset="1" style="stop-color:rgb(151,133,229);stop-opacity:1"/></linearGradient>
    </defs>
</svg>
